# xmcd
#
# Track frame offsets:
#       150
#       23505
#       43040
#       57015
#       86230
#       110300
#       136772
#       148665
#       169067
#       185840
#       195562
#
# Disc length: 2799 seconds
#
# Revision: 2
# Processed by: cddbd v1.5.2PL0 Copyright (c) Steve Scherf et al.
# Submitted via: FreeDbEdit v0.1
#
DISCID=920aed0b
DTITLE=Wings - Wings at Speed of Sound
DYEAR=1900
DGENRE=Rock
TTITLE0=Let'em In
TTITLE1=The Note You Never Wrote
TTITLE2=She's My Baby
TTITLE3=Beware My Love
TTITLE4=Wino Junko
TTITLE5=Silly Love Songs
TTITLE6=Cook of the House
TTITLE7=Time to Hide
TTITLE8=Must Do Something About It
TTITLE9=San Ferry Anne
TTITLE10=Warm and Beautiful
EXTD=
EXTT0=
EXTT1=
EXTT2=
EXTT3=
EXTT4=
EXTT5=
EXTT6=
EXTT7=
EXTT8=
EXTT9=
EXTT10=
PLAYORDER=
